<svg width="40" height="40" viewBox="0 0 40 40" fill="none" xmlns="http://www.w3.org/2000/svg">
    <rect width="40" height="40" rx="20" fill="#E5F4ED" />
    <path
        d="M21.0002 19L26.0002 14M27.0002 15L25.0002 13L27.5002 11.5L28.5002 12.5L27.0002 15ZM12.0252 16.975C11.5451 16.4953 11.2148 15.8864 11.0746 15.2223C10.9343 14.5583 10.9901 13.8678 11.2352 13.235L12.6572 14.657H14.6572V12.657L13.2352 11.235C13.8682 10.9893 14.5589 10.933 15.2232 11.073C15.8875 11.2129 16.4968 11.5431 16.9768 12.0232C17.4568 12.5033 17.7869 13.1127 17.9267 13.7771C18.0665 14.4414 18.01 15.1321 17.7642 15.765L24.2342 22.236C24.8671 21.9902 25.5578 21.9337 26.2222 22.0735C26.8865 22.2133 27.4959 22.5434 27.976 23.0234C28.4561 23.5034 28.7863 24.1127 28.9262 24.777C29.0662 25.4413 29.0099 26.132 28.7642 26.765L27.3432 25.343H25.3432V27.343L26.7652 28.765C26.1325 29.0106 25.442 29.067 24.7777 28.9272C24.1135 28.7874 23.5043 28.4575 23.0242 27.9776C22.5442 27.4978 22.214 26.8887 22.0739 26.2245C21.9338 25.5604 21.9899 24.8698 22.2352 24.237L15.7632 17.765C15.1306 18.0096 14.4406 18.0652 13.7769 17.925C13.1133 17.7847 12.5048 17.4547 12.0252 16.975Z"
        stroke="#0CAB61" strokeWidth="1.5" strokeLinecap="round" strokeLinejoin="round" />
    <path
        d="M20.2033 22.4999L14.5993 28.1039C14.4739 28.2295 14.325 28.3292 14.161 28.3972C13.9971 28.4652 13.8213 28.5002 13.6438 28.5002C13.4663 28.5002 13.2906 28.4652 13.1266 28.3972C12.9626 28.3292 12.8137 28.2295 12.6883 28.1039L11.8963 27.3119C11.7707 27.1865 11.671 27.0375 11.603 26.8736C11.535 26.7096 11.5 26.5339 11.5 26.3564C11.5 26.1789 11.535 26.0031 11.603 25.8392C11.671 25.6752 11.7707 25.5263 11.8963 25.4009L17.5003 19.7969"
        stroke="#0CAB61" strokeWidth="1.5" strokeLinecap="round" strokeLinejoin="round" />
</svg>