<svg width="41" height="41" viewBox="0 0 41 41" fill="none" xmlns="http://www.w3.org/2000/svg">
<rect x="0.25" y="0.109863" width="40" height="40" rx="20" fill="#468AFF" fill-opacity="0.15"/>
<path d="M27.938 15.9999H29C29.5304 15.9999 30.0391 16.2106 30.4142 16.5857C30.7893 16.9608 31 17.4695 31 17.9999V21.9999C31 22.5303 30.7893 23.039 30.4142 23.4141C30.0391 23.7892 29.5304 23.9999 29 23.9999H27.938C27.6944 25.9333 26.7535 27.7113 25.292 29.0001C23.8304 30.289 21.9487 31.0001 20 30.9999V28.9999C21.5913 28.9999 23.1174 28.3678 24.2426 27.2425C25.3679 26.1173 26 24.5912 26 22.9999V16.9999C26 15.4086 25.3679 13.8825 24.2426 12.7573C23.1174 11.632 21.5913 10.9999 20 10.9999C18.4087 10.9999 16.8826 11.632 15.7574 12.7573C14.6321 13.8825 14 15.4086 14 16.9999V23.9999H11C10.4696 23.9999 9.96086 23.7892 9.58579 23.4141C9.21071 23.039 9 22.5303 9 21.9999V17.9999C9 17.4695 9.21071 16.9608 9.58579 16.5857C9.96086 16.2106 10.4696 15.9999 11 15.9999H12.062C12.306 14.0668 13.2471 12.2892 14.7086 11.0006C16.1701 9.71198 18.0516 9.00098 20 9.00098C21.9484 9.00098 23.8299 9.71198 25.2914 11.0006C26.7529 12.2892 27.694 14.0668 27.938 15.9999ZM11 17.9999V21.9999H12V17.9999H11ZM28 17.9999V21.9999H29V17.9999H28ZM15.76 23.7849L16.82 22.0889C17.773 22.686 18.8754 23.0018 20 22.9999C21.1246 23.0018 22.227 22.686 23.18 22.0889L24.24 23.7849C22.9693 24.5812 21.4996 25.0024 20 24.9999C18.5004 25.0024 17.0307 24.5812 15.76 23.7849Z" fill="#1C5ED6"/>
</svg>
